<svg width="12" height="11" viewBox="0 0 12 11" fill="none" xmlns="http://www.w3.org/2000/svg">
<path fill-rule="evenodd" clip-rule="evenodd" d="M6.00033 0.166748C6.36852 0.166748 6.66699 0.465225 6.66699 0.833415V4.83342H10.667C11.0352 4.83342 11.3337 5.13189 11.3337 5.50008C11.3337 5.86827 11.0352 6.16675 10.667 6.16675H6.66699V10.1667C6.66699 10.5349 6.36852 10.8334 6.00033 10.8334C5.63214 10.8334 5.33366 10.5349 5.33366 10.1667V6.16675H1.33366C0.965469 6.16675 0.666992 5.86827 0.666992 5.50008C0.666992 5.13189 0.965469 4.83342 1.33366 4.83342H5.33366V0.833415C5.33366 0.465225 5.63214 0.166748 6.00033 0.166748Z" fill="#F8F8F9"/>
</svg>
