<svg width="40" height="40" viewBox="0 0 40 40" fill="none" xmlns="http://www.w3.org/2000/svg">
<path d="M0 10C0 4.47715 4.47715 0 10 0H30C35.5228 0 40 4.47715 40 10V30C40 35.5228 35.5228 40 30 40H10C4.47715 40 0 35.5228 0 30V10Z" fill="white"/>
<path d="M9.45508 12.8694H13.0914" stroke="#DA0175" stroke-width="1.5" stroke-linecap="round" stroke-linejoin="round"/>
<path d="M9.45508 27.478H13.0914" stroke="#DA0175" stroke-width="1.5" stroke-linecap="round" stroke-linejoin="round"/>
<path d="M21.0918 12.8694H30.5463" stroke="#DA0175" stroke-width="1.5" stroke-linecap="round" stroke-linejoin="round"/>
<path d="M21.0918 27.478H30.5463" stroke="#DA0175" stroke-width="1.5" stroke-linecap="round" stroke-linejoin="round"/>
<path d="M9.45508 20.1738H20.3642" stroke="#DA0175" stroke-width="1.5" stroke-linecap="round" stroke-linejoin="round"/>
<path d="M28.3633 20.1738H30.5451" stroke="#DA0175" stroke-width="1.5" stroke-linecap="round" stroke-linejoin="round"/>
<path d="M17.0911 15.9999C18.8986 15.9999 20.3638 14.5983 20.3638 12.8694C20.3638 11.1406 18.8986 9.73901 17.0911 9.73901C15.2836 9.73901 13.8184 11.1406 13.8184 12.8694C13.8184 14.5983 15.2836 15.9999 17.0911 15.9999Z" stroke="#DA0175" stroke-width="1.5" stroke-linecap="round" stroke-linejoin="round"/>
<path d="M17.0911 30.6085C18.8986 30.6085 20.3638 29.207 20.3638 27.4781C20.3638 25.7492 18.8986 24.3477 17.0911 24.3477C15.2836 24.3477 13.8184 25.7492 13.8184 27.4781C13.8184 29.207 15.2836 30.6085 17.0911 30.6085Z" stroke="#DA0175" stroke-width="1.5" stroke-linecap="round" stroke-linejoin="round"/>
<path d="M24.3645 23.3041C26.172 23.3041 27.6373 21.9025 27.6373 20.1736C27.6373 18.4448 26.172 17.0432 24.3645 17.0432C22.557 17.0432 21.0918 18.4448 21.0918 20.1736C21.0918 21.9025 22.557 23.3041 24.3645 23.3041Z" stroke="#DA0175" stroke-width="1.5" stroke-linecap="round" stroke-linejoin="round"/>
</svg>
