<svg width="20" height="18" viewBox="0 0 20 18" fill="none" xmlns="http://www.w3.org/2000/svg">
<path fill-rule="evenodd" clip-rule="evenodd" d="M2.70711 0.292893C2.31658 -0.0976311 1.68342 -0.0976311 1.29289 0.292893C0.902369 0.683417 0.902369 1.31658 1.29289 1.70711L3.71706 4.13127C2.28639 5.20737 1.03925 6.68543 0.105573 8.55279C-0.0351909 8.83432 -0.0351909 9.16569 0.105573 9.44722C2.26379 13.7637 6.09687 16 10 16C11.5552 16 13.0992 15.645 14.5306 14.9448L17.2929 17.7071C17.6834 18.0976 18.3166 18.0976 18.7071 17.7071C19.0976 17.3166 19.0976 16.6834 18.7071 16.2929L2.70711 0.292893ZM13.0138 13.428L11.2934 11.7076C10.9018 11.8951 10.4631 12 10 12C8.34315 12 7 10.6569 7 9.00001C7 8.53686 7.10495 8.09822 7.29237 7.70659L5.14838 5.56259C3.98778 6.3794 2.94721 7.52136 2.12966 9C3.99806 12.3792 7.03121 14 10 14C11.0134 14 12.0343 13.8112 13.0138 13.428Z" fill="#747488"/>
<path d="M16.5523 10.8955C17.0353 10.3402 17.4784 9.70876 17.8703 9C16.0019 5.62078 12.9687 4 9.99996 4C9.88796 4 9.77586 4.00231 9.66374 4.00693L7.87939 2.22258C8.57741 2.07451 9.28752 2 9.99996 2C13.9031 2 17.7362 4.23635 19.8944 8.55279C20.0352 8.83431 20.0352 9.16569 19.8944 9.44721C19.3504 10.5352 18.7 11.491 17.9689 12.3121L16.5523 10.8955Z" fill="#747488"/>
</svg>
